# xmcd
#
# Track frame offsets:
#	150
#	15770
#	63502
#	94995
#	114067
#	168975
#	187620
#	207090
#	227327
#	252322
#	271937
#	308142
#	328172
#
# Disc length: 4773 seconds
#
# Revision: 0
# Processed by: cddbd v1.4PL0 Copyright (c) Steve Scherf et al.
# Submitted via: EasyCDDAExtractor 4.6.0.1
#
DISCID=9912a30d
DTITLE=Stevie Ray Vaughan - Thanks For The Memories
DYEAR=1996
DGENRE=Blues
TTITLE0=So Excited
TTITLE1=Voodoo Chile (Slight Return)
TTITLE2=The Things That I Use To Do
TTITLE3=Pride And Joy
TTITLE4=Tin Pan Alley
TTITLE5=Little Sister
TTITLE6=Change It
TTITLE7=Come On
TTITLE8=Cold Shot
TTITLE9=Love House
TTITLE10=Texas Flood
TTITLE11=Pride and Joy
TTITLE12=Willy The Wimp
EXTD=Tracks 1-5 Recorded live at Antones - Austin, Texas 1983\nTracks 6-13 Recr
EXTD=ded in Dallas, Texas 1986
EXTT0=
EXTT1=
EXTT2=
EXTT3=
EXTT4=
EXTT5=
EXTT6=
EXTT7=
EXTT8=
EXTT9=
EXTT10=
EXTT11=
EXTT12=
PLAYORDER=
